<svg width="200" height="160" viewBox="0 0 200 160" fill="none" xmlns="http://www.w3.org/2000/svg">
<path d="M46.55 62.905C46.2981 62.1239 46.2025 61.3007 46.2687 60.4826C46.3349 59.6646 46.5615 58.8675 46.9358 58.137C47.31 57.4065 47.8244 56.7569 48.4497 56.2252C49.075 55.6936 49.7989 55.2902 50.58 55.0383L120.142 32.5933C120.923 32.3414 121.746 32.2458 122.564 32.312C123.382 32.3782 124.179 32.6049 124.91 32.9791C125.64 33.3533 126.29 33.8677 126.821 34.493C127.353 35.1183 127.756 35.8422 128.008 36.6233L150.45 106.183C150.959 107.761 150.82 109.476 150.065 110.951C149.309 112.426 147.999 113.541 146.422 114.05L76.8617 136.495C75.2843 137.004 73.5694 136.865 72.0941 136.11C70.6189 135.354 69.5041 134.044 68.995 132.467L46.55 62.905Z" fill="#343745"/>
<mask id="mask0_37_30106" style="mask-type:alpha" maskUnits="userSpaceOnUse" x="46" y="32" width="105" height="105">
<path d="M46.55 62.905C46.2981 62.1239 46.2025 61.3007 46.2687 60.4827C46.3349 59.6646 46.5615 58.8675 46.9358 58.137C47.31 57.4065 47.8244 56.7569 48.4497 56.2252C49.075 55.6936 49.7989 55.2903 50.58 55.0383L120.142 32.5933C121.719 32.0845 123.434 32.223 124.909 32.9785C126.384 33.7339 127.499 35.0444 128.008 36.6217L150.453 106.183C150.962 107.761 150.824 109.476 150.068 110.951C149.313 112.426 148.002 113.541 146.425 114.05L76.8633 136.495C75.286 137.004 73.5711 136.865 72.0958 136.11C70.6206 135.354 69.5058 134.044 68.9967 132.467L46.55 62.905Z" fill="#999BAC"/>
</mask>
<g mask="url(#mask0_37_30106)">
<path d="M114.145 90.9267L111.145 96.38L88.785 136.635C74.485 138.665 55.67 148.612 51.1417 134.573L55.7583 116.02L49.1617 95.5783L56.0333 83.165C60.74 74.575 71.945 70.96 80.7833 75.1783L114.145 90.9267Z" fill="#494B5C"/>
<path d="M153.203 82.5467L160.58 101.13C165.627 116.768 149.777 115.33 134.138 120.377L94.7333 133.092C93.5 133.488 92.3533 133.723 91.0833 133.997C90.7133 134.117 90.3033 134.113 90.0567 134.192L112.418 93.9383L115.418 88.4833L115.918 87.5067C121.455 77.6983 134.138 73.6067 144.24 78.3683L153.203 82.5467ZM114.627 65.53C115.472 65.2662 116.257 64.8374 116.936 64.2684C117.615 63.6994 118.174 63.0016 118.582 62.2152C118.989 61.4287 119.237 60.5694 119.31 59.6867C119.384 58.804 119.281 57.9155 119.009 57.0726C118.737 56.2296 118.301 55.449 117.725 54.7757C117.15 54.1023 116.447 53.5498 115.656 53.1499C114.866 52.7499 114.004 52.5106 113.121 52.4457C112.238 52.3808 111.35 52.4916 110.51 52.7717C108.834 53.3303 107.446 54.528 106.649 56.1044C105.851 57.6807 105.708 59.5081 106.25 61.1894C106.793 62.8707 107.977 64.2699 109.546 65.0827C111.114 65.8955 112.94 66.0563 114.627 65.53Z" fill="#61647A"/>
</g>
<path d="M151.988 28.6667C152.018 28.5883 152.07 28.5208 152.139 28.4731C152.207 28.4255 152.289 28.3999 152.372 28.3999C152.456 28.3999 152.538 28.4255 152.606 28.4731C152.675 28.5208 152.727 28.5883 152.757 28.6667L154.767 34.0983C154.808 34.21 154.897 34.2983 155.008 34.34L160.438 36.35C160.516 36.3795 160.583 36.432 160.63 36.5005C160.678 36.5689 160.703 36.6501 160.703 36.7333C160.703 36.8165 160.678 36.8977 160.63 36.9662C160.583 37.0347 160.516 37.0872 160.438 37.1167L155.008 39.1267C154.953 39.1476 154.903 39.1799 154.862 39.2216C154.82 39.2632 154.788 39.3133 154.767 39.3683L152.757 44.8C152.727 44.8778 152.675 44.9447 152.606 44.992C152.538 45.0392 152.457 45.0646 152.373 45.0646C152.29 45.0646 152.209 45.0392 152.14 44.992C152.072 44.9447 152.02 44.8778 151.99 44.8L149.98 39.3683C149.959 39.3133 149.927 39.2632 149.885 39.2216C149.843 39.1799 149.793 39.1476 149.738 39.1267L144.307 37.1167C144.229 37.0872 144.162 37.0347 144.115 36.9662C144.067 36.8977 144.042 36.8165 144.042 36.7333C144.042 36.6501 144.067 36.5689 144.115 36.5005C144.162 36.432 144.229 36.3795 144.307 36.35L149.737 34.34C149.792 34.3193 149.842 34.287 149.884 34.2454C149.926 34.2037 149.959 34.1536 149.98 34.0983L151.988 28.6667ZM163.067 51.215C163.086 51.1632 163.12 51.1185 163.166 51.0869C163.211 51.0553 163.265 51.0384 163.32 51.0384C163.375 51.0384 163.429 51.0553 163.474 51.0869C163.52 51.1185 163.554 51.1632 163.573 51.215L164.923 54.8667C164.952 54.94 165.01 55 165.083 55.0267L168.735 56.3767C168.787 56.3954 168.833 56.4299 168.865 56.4754C168.897 56.5209 168.914 56.5752 168.914 56.6308C168.914 56.6865 168.897 56.7407 168.865 56.7862C168.833 56.8317 168.787 56.8662 168.735 56.885L165.085 58.235C165.048 58.2483 165.014 58.2697 164.986 58.2976C164.958 58.3256 164.937 58.3594 164.923 58.3967L163.573 62.0467C163.555 62.099 163.52 62.1443 163.475 62.1764C163.429 62.2084 163.375 62.2256 163.319 62.2256C163.264 62.2256 163.209 62.2084 163.164 62.1764C163.118 62.1443 163.084 62.099 163.065 62.0467L161.715 58.3967C161.702 58.3599 161.68 58.3265 161.653 58.2989C161.625 58.2712 161.592 58.25 161.555 58.2367L157.903 56.885C157.852 56.8659 157.807 56.8314 157.775 56.7861C157.744 56.7408 157.727 56.6869 157.727 56.6317C157.727 56.5765 157.744 56.5226 157.775 56.4773C157.807 56.432 157.852 56.3974 157.903 56.3783L161.553 55.0267C161.59 55.0136 161.624 54.9924 161.652 54.9648C161.68 54.9371 161.702 54.9036 161.715 54.8667L163.067 51.215Z" fill="#61647A"/>
</svg>
