<svg class="icon" style="width: 1em;height: 1em;vertical-align: middle;fill: currentColor;overflow: hidden;" viewBox="0 0 1024 1024" version="1.1" xmlns="http://www.w3.org/2000/svg" p-id="5898"><path d="M512 768a42.666667 42.666667 0 0 1 42.666667 42.666667v85.333333a42.666667 42.666667 0 0 1-85.333334 0v-85.333333a42.666667 42.666667 0 0 1 42.666667-42.666667z m251.264-640a170.666667 170.666667 0 0 1 170.453333 162.133333l0.213334 8.533334v426.666666a170.666667 170.666667 0 0 1-162.133334 170.453334l-8.533333 0.213333h-123.136a42.666667 42.666667 0 0 1-4.992-85.034667l4.992-0.298666h123.136a85.333333 85.333333 0 0 0 85.077333-78.933334l0.256-6.4V298.666667a85.333333 85.333333 0 0 0-78.933333-85.12L763.221333 213.333333H640.853333a42.666667 42.666667 0 0 1-4.949333-85.034666L640.853333 128h122.368zM385.706667 128a42.666667 42.666667 0 0 1 4.949333 85.034667L385.749333 213.333333H260.693333a85.333333 85.333333 0 0 0-85.077333 78.933334L175.36 298.666667v426.666666a85.333333 85.333333 0 0 0 78.933333 85.12l6.4 0.213334h123.178667a42.666667 42.666667 0 0 1 4.949333 85.034666L383.914667 896H260.693333a170.666667 170.666667 0 0 1-170.453333-162.133333l-0.213333-8.533334V298.666667a170.666667 170.666667 0 0 1 162.133333-170.453334l8.533333-0.213333h125.013334zM512 554.666667a42.666667 42.666667 0 0 1 42.666667 42.666666v85.333334a42.666667 42.666667 0 0 1-85.333334 0v-85.333334a42.666667 42.666667 0 0 1 42.666667-42.666666z m0-256a42.666667 42.666667 0 0 1 42.666667 42.666666v85.333334a42.666667 42.666667 0 0 1-85.333334 0V341.333333a42.666667 42.666667 0 0 1 42.666667-42.666666z m0-213.333334a42.666667 42.666667 0 0 1 42.666667 42.666667v85.333333a42.666667 42.666667 0 0 1-85.333334 0V128a42.666667 42.666667 0 0 1 42.666667-42.666667z" fill="currentColor" p-id="5899"></path></svg>