<svg data-v-wqqsvkj8="" width="1em" height="1em" viewBox="0 0 20 20" fill="currentColor" xmlns="http://www.w3.org/2000/svg" ><path fill-rule="evenodd" clip-rule="evenodd" d="M3.33333 10.3332C3.79357 10.3332 4.16667 10.7063 4.16667 11.1665V14.4998C4.16667 15.2669 4.78849 15.8887 5.55556 15.8887H14.4444C15.2115 15.8887 15.8333 15.2669 15.8333 14.4998V11.1665C15.8333 10.7063 16.2064 10.3332 16.6667 10.3332C17.1269 10.3332 17.5 10.7063 17.5 11.1665V14.4998C17.5 16.1874 16.132 17.5554 14.4444 17.5554H5.55556C3.86802 17.5554 2.5 16.1874 2.5 14.4998V11.1665C2.5 10.7063 2.8731 10.3332 3.33333 10.3332Z"></path><path fill-rule="evenodd" clip-rule="evenodd" d="M10 2.41895C10.4602 2.41895 10.8333 2.79204 10.8333 3.25228V12.4189C10.8333 12.8792 10.4602 13.2523 10 13.2523C9.53976 13.2523 9.16667 12.8792 9.16667 12.4189V3.25228C9.16667 2.79204 9.53976 2.41895 10 2.41895Z"></path><path fill-rule="evenodd" clip-rule="evenodd" d="M13.8438 8.57555C14.1693 8.90098 14.1693 9.42861 13.8439 9.75406L10.5902 13.008C10.2647 13.3334 9.73712 13.3334 9.41167 13.008L6.15783 9.75452C5.83237 9.42911 5.83234 8.90147 6.15776 8.57601C6.48318 8.25056 7.01082 8.25053 7.33627 8.57595L10.0008 11.2402L12.6653 8.57558C12.9908 8.25014 13.5184 8.25012 13.8438 8.57555Z"></path></svg>