<svg data-v-dbcc8c5c="" width="24" height="24" viewBox="0 0 24 24" fill="none" xmlns="http://www.w3.org/2000/svg"><path fill-rule="evenodd" clip-rule="evenodd" d="M11.1995 7.71761C11.6945 7.4318 12.3044 7.4318 12.7995 7.71761L15.3082 9.16605C15.8033 9.45186 16.1082 9.98006 16.1082 10.5517V13.4486C16.1082 14.0202 15.8033 14.5484 15.3082 14.8342L12.7995 16.2826C12.3044 16.5684 11.6945 16.5684 11.1995 16.2826L8.69071 14.8342C8.19566 14.5484 7.89071 14.0202 7.89071 13.4486V10.5517C7.89071 9.98006 8.19566 9.45186 8.69071 9.16605L11.1995 7.71761ZM9.75737 10.7056V13.2946L11.9995 14.5891L14.2416 13.2946V10.7056L11.9995 9.41118L9.75737 10.7056Z" fill="url(#paint0_linear_119_5148)"></path><path fill-rule="evenodd" clip-rule="evenodd" d="M10.833 2.18565C11.5549 1.76884 12.4444 1.76884 13.1663 2.18565L19.9159 6.08252C20.6378 6.49933 21.0826 7.26963 21.0826 8.10325V15.897C21.0826 16.7306 20.6378 17.5009 19.9159 17.9177L13.1663 21.8146C12.4444 22.2314 11.5549 22.2314 10.833 21.8146L4.08341 17.9177C3.36148 17.5009 2.91675 16.7306 2.91675 15.897V8.10325C2.91675 7.26963 3.36148 6.49933 4.08341 6.08252L10.833 2.18565ZM12.1663 3.91771C12.0632 3.85816 11.9361 3.85816 11.833 3.91771L5.08341 7.81457C4.98028 7.87412 4.91675 7.98416 4.91675 8.10325V15.897C4.91675 16.0161 4.98028 16.1261 5.08341 16.1857L11.833 20.0825C11.9361 20.1421 12.0632 20.1421 12.1663 20.0825L18.9159 16.1857C19.019 16.1261 19.0826 16.0161 19.0826 15.897V8.10325C19.0826 7.98416 19.019 7.87412 18.9159 7.81457L12.1663 3.91771Z" fill="url(#paint1_linear_119_5148)"></path><defs><linearGradient id="paint0_linear_119_5148" x1="5.4433" y1="5.00851" x2="19.1626" y2="17.7392" gradientUnits="userSpaceOnUse"><stop stop-color="#36EED8"></stop><stop offset="1" stop-color="#ABFF4A"></stop></linearGradient><linearGradient id="paint1_linear_119_5148" x1="5.4433" y1="5.00851" x2="19.1626" y2="17.7392" gradientUnits="userSpaceOnUse"><stop stop-color="#36EED8"></stop><stop offset="1" stop-color="#ABFF4A"></stop></linearGradient></defs></svg>